<?xml version="1.0" standalone="no"?>
<!DOCTYPE svg PUBLIC "-//W3C//DTD SVG 20010904//EN"
 "http://www.w3.org/TR/2001/REC-SVG-20010904/DTD/svg10.dtd">
<svg version="1.0" xmlns="http://www.w3.org/2000/svg"
 width="100.000000pt" height="100.000000pt" viewBox="0 0 100.000000 100.000000"
 preserveAspectRatio="xMidYMid meet">
<metadata>
Created by potrace 1.11, written by Peter Selinger 2001-2013
</metadata>
<g transform="translate(0.000000,100.000000) scale(0.100000,-0.100000)"
fill="#000000" stroke="none">
<path d="M75 981 c-11 -5 -29 -19 -40 -31 -19 -21 -20 -36 -20 -451 l0 -429
28 -27 27 -28 430 0 430 0 27 28 28 27 0 430 0 430 -28 27 -27 28 -418 2
c-229 1 -426 -2 -437 -6z m633 -114 c-9 -7 -31 -20 -48 -29 -17 -10 -37 -33
-46 -53 -12 -31 -12 -39 0 -70 8 -19 19 -35 23 -35 4 0 34 16 66 34 l58 33
-27 22 c-15 11 -31 21 -36 21 -6 0 0 -9 13 -19 31 -25 19 -38 -15 -16 -14 9
-31 15 -38 12 -9 -4 -8 -6 3 -6 18 -1 45 -28 37 -37 -10 -9 -68 31 -65 46 6
44 71 52 115 15 l30 -25 20 25 c26 33 36 32 18 -2 -19 -36 -50 -64 -111 -98
-27 -16 -51 -29 -53 -30 -1 -1 14 -32 33 -69 52 -99 46 -164 -19 -217 -17 -14
-18 -20 -8 -49 23 -64 13 -78 -16 -25 -80 142 -84 147 -121 140 -65 -12 -77
-21 -79 -58 -3 -39 1 -42 73 -52 36 -6 55 -16 81 -44 18 -20 34 -41 34 -48 0
-8 13 -11 38 -8 32 4 34 3 17 -7 -11 -6 -42 -31 -69 -55 -26 -23 -57 -43 -68
-43 -30 0 -17 23 24 42 35 17 64 43 36 33 -26 -10 -79 -12 -118 -5 -34 6 -42
4 -51 -12 -13 -24 -35 -18 -31 9 2 15 -8 24 -40 39 -75 33 -159 122 -195 206
-10 21 -9 26 0 22 7 -2 18 -17 24 -32 7 -15 33 -49 58 -77 50 -54 49 -56 19
50 -14 49 -11 101 8 140 16 32 82 130 91 133 12 6 8 39 -8 52 -23 19 -18 30
20 46 53 22 65 19 65 -17 0 -55 40 -148 71 -166 16 -10 29 -22 29 -28 0 -6 16
-9 39 -7 21 2 48 -1 60 -7 12 -7 21 -9 21 -5 0 12 -50 94 -57 94 -4 0 -20 -12
-35 -27 -36 -34 -38 -10 -3 27 24 25 25 28 10 56 -20 39 -19 73 4 108 22 33
96 86 120 86 14 -1 14 -2 -1 -13z"/>
<path d="M376 558 c-17 -24 -21 -94 -8 -115 6 -10 20 -9 65 4 31 8 54 19 52
23 -3 4 -21 15 -41 25 -36 17 -38 23 -19 68 11 26 -30 22 -49 -5z"/>
<path d="M522 506 c-13 -31 -8 -46 9 -29 6 6 9 21 7 34 -4 24 -5 23 -16 -5z"/>
<path d="M560 513 c0 -7 4 -21 9 -31 5 -9 14 -28 20 -42 7 -14 20 -36 31 -50
18 -24 19 -24 39 -6 27 24 39 85 20 97 -23 14 -34 10 -14 -5 17 -12 15 -13
-24 -12 -34 0 -41 4 -38 18 3 11 0 15 -10 11 -11 -4 -14 -1 -11 8 2 7 15 17
29 20 19 6 16 7 -13 6 -24 -1 -38 -6 -38 -14z"/>
</g>
</svg>
